_________________________  Visit us at _________________________
  
http://p2pdl.com  ____________________________  http://p2pdl.com

 
http://www.shotpix.com/images/77907201517979217036.jpg


One Direction - Kiss You {M4A+MP4} (1080p) x264 [VX] [P2PDL]


                               1080p Full HD MP4 Video
                                         +
                               128 Kbps/VBR M4A Audio

General
Complete name                  : One Direction - Kiss You (1080p) x264 [VX] [P2PDL].mp4
Format                         : MPEG-4
Format profile                 : Base Media / Version 2
Codec ID                       : mp42
File size                      : 33.7 MiB
Duration                       : 3mn 9s

Video
ID                             : 1
Format                         : AVC
Format/Info                    : Advanced Video Codec
Duration                       : 3mn 9s
Bit rate mode                  : Variable
Bit rate                       : 1 359 Kbps
Width                          : 1 920 pixels
Height                         : 800 pixels
Display aspect ratio           : 2.40:1
Frame rate mode                : Constant
Frame rate                     : 25.000 fps
Scan type                      : Progressive
Bits/(Pixel*Frame)             : 0.035
Stream size                    : 30.8 MiB (91%)
Writing library                : x264 core 128

Audio
ID                             : 2
Format                         : AAC
Duration                       : 3mn 9s
Bit rate mode                  : Variable
Bit rate                       : 125 Kbps
Channel(s)                     : 2 channels
Channel positions              : Front: L R
Sampling rate                  : 48.0 KHz
Stream size                    : 2.83 MiB (8%)


Subtitles                      : No

Screens:
 
http://www.shotpix.com/images/63201907145562773732.jpg 
http://www.shotpix.com/images/26447448609924810566.jpg

Thumbs:
 
http://www.shotpix.com/images/79373568076804853017.jpg

------------------------------------------------------------------------

Notes:

* Recommended to use latest version VLC Media Player.
* Install shark007 codecs in case of any kind of problem in playback (For non-VLC Media Player users).
* Alternatively, install Core AVC codecs, the fastest decoder that there is coupled with Community Center Codec Pack and play on Windows Media Player Classic.

Greets to: VYTO, a2zRG, Stumpie1971, Sheychi, Caveman, Ash968, Neon, Masta, TorDigger and staff members at ExtraTorrent, TPB,KAT, 1337x, PublicHD, Ahashare, TorrentMafia, Limetorrents, BTScene, P2PDL, and all others

Encoder Notes: Looking For Early Access To Anything You Can Provide DVDScr, R5, DVDRips, BluRay, Direct Audio, Early Music
Releases, Seedboxes, Links, Dedicated Servers anything u can provide, Advance / Promo CDs/DVDs. If You Got anything to
offer contact me at "prg@hush.com"

Facebook Fan Page: www . facebook . com / p2pdl